<svg width="31" height="31" viewBox="0 0 31 31" fill="none" xmlns="http://www.w3.org/2000/svg">
<mask id="mask0_4023_66" style="mask-type:alpha" maskUnits="userSpaceOnUse" x="0" y="0" width="31" height="31">
<rect x="0.678833" y="0.897949" width="30" height="30" fill="#D9D9D9"/>
</mask>
<g mask="url(#mask0_4023_66)">
<path d="M6.92883 27.1479C6.24133 27.1479 5.65279 26.9032 5.16321 26.4136C4.67362 25.924 4.42883 25.3354 4.42883 24.6479V7.14795C4.42883 6.46045 4.67362 5.87191 5.16321 5.38232C5.65279 4.89274 6.24133 4.64795 6.92883 4.64795H24.4288C25.1163 4.64795 25.7049 4.89274 26.1945 5.38232C26.684 5.87191 26.9288 6.46045 26.9288 7.14795V24.6479C26.9288 25.3354 26.684 25.924 26.1945 26.4136C25.7049 26.9032 25.1163 27.1479 24.4288 27.1479H6.92883ZM6.92883 24.6479H24.4288V10.8979H6.92883V24.6479Z" fill="black"/>
</g>
</svg>
