<svg width="31" height="31" viewBox="0 0 31 31" fill="none" xmlns="http://www.w3.org/2000/svg">
<mask id="mask0_4023_57" style="mask-type:alpha" maskUnits="userSpaceOnUse" x="0" y="0" width="31" height="31">
<rect x="0.678833" y="0.135254" width="30" height="30" fill="#D9D9D9"/>
</mask>
<g mask="url(#mask0_4023_57)">
<path d="M15.6788 20.1353L9.42883 13.8853L11.1788 12.0728L14.4288 15.3228V5.13525H16.9288V15.3228L20.1788 12.0728L21.9288 13.8853L15.6788 20.1353ZM8.17883 25.1353C7.49133 25.1353 6.90279 24.8905 6.41321 24.4009C5.92362 23.9113 5.67883 23.3228 5.67883 22.6353V18.8853H8.17883V22.6353H23.1788V18.8853H25.6788V22.6353C25.6788 23.3228 25.434 23.9113 24.9445 24.4009C24.4549 24.8905 23.8663 25.1353 23.1788 25.1353H8.17883Z" fill="black"/>
</g>
</svg>
