<svg width="31" height="31" viewBox="0 0 31 31" fill="none" xmlns="http://www.w3.org/2000/svg">
<mask id="mask0_4023_51" style="mask-type:alpha" maskUnits="userSpaceOnUse" x="0" y="0" width="31" height="31">
<rect x="0.678833" y="0.516602" width="30" height="30" fill="#D9D9D9"/>
</mask>
<g mask="url(#mask0_4023_51)">
<path d="M15.6788 28.0166C13.9705 28.0166 12.3559 27.6885 10.8351 27.0322C9.31425 26.376 7.98612 25.4801 6.85071 24.3447C5.71529 23.2093 4.81946 21.8812 4.16321 20.3604C3.50696 18.8395 3.17883 17.2249 3.17883 15.5166C3.17883 13.7874 3.51737 12.1624 4.19446 10.6416C4.87154 9.12077 5.78821 7.79785 6.94446 6.67285C8.10071 5.54785 9.44967 4.65723 10.9913 4.00098C12.533 3.34473 14.1788 3.0166 15.9288 3.0166C17.5955 3.0166 19.1684 3.30306 20.6476 3.87598C22.1268 4.44889 23.4236 5.24056 24.5382 6.25098C25.6528 7.26139 26.5382 8.45931 27.1945 9.84473C27.8507 11.2301 28.1788 12.7249 28.1788 14.3291C28.1788 16.7249 27.4497 18.5635 25.9913 19.8447C24.533 21.126 22.7622 21.7666 20.6788 21.7666H18.3663C18.1788 21.7666 18.0486 21.8187 17.9757 21.9229C17.9028 22.027 17.8663 22.1416 17.8663 22.2666C17.8663 22.5166 18.0226 22.876 18.3351 23.3447C18.6476 23.8135 18.8038 24.3499 18.8038 24.9541C18.8038 25.9958 18.5174 26.7666 17.9445 27.2666C17.3715 27.7666 16.6163 28.0166 15.6788 28.0166ZM8.80383 16.7666C9.3455 16.7666 9.79342 16.5895 10.1476 16.2354C10.5018 15.8812 10.6788 15.4333 10.6788 14.8916C10.6788 14.3499 10.5018 13.902 10.1476 13.5479C9.79342 13.1937 9.3455 13.0166 8.80383 13.0166C8.26217 13.0166 7.81425 13.1937 7.46008 13.5479C7.10592 13.902 6.92883 14.3499 6.92883 14.8916C6.92883 15.4333 7.10592 15.8812 7.46008 16.2354C7.81425 16.5895 8.26217 16.7666 8.80383 16.7666ZM12.5538 11.7666C13.0955 11.7666 13.5434 11.5895 13.8976 11.2354C14.2517 10.8812 14.4288 10.4333 14.4288 9.8916C14.4288 9.34993 14.2517 8.90202 13.8976 8.54785C13.5434 8.19369 13.0955 8.0166 12.5538 8.0166C12.0122 8.0166 11.5642 8.19369 11.2101 8.54785C10.8559 8.90202 10.6788 9.34993 10.6788 9.8916C10.6788 10.4333 10.8559 10.8812 11.2101 11.2354C11.5642 11.5895 12.0122 11.7666 12.5538 11.7666ZM18.8038 11.7666C19.3455 11.7666 19.7934 11.5895 20.1476 11.2354C20.5017 10.8812 20.6788 10.4333 20.6788 9.8916C20.6788 9.34993 20.5017 8.90202 20.1476 8.54785C19.7934 8.19369 19.3455 8.0166 18.8038 8.0166C18.2622 8.0166 17.8142 8.19369 17.4601 8.54785C17.1059 8.90202 16.9288 9.34993 16.9288 9.8916C16.9288 10.4333 17.1059 10.8812 17.4601 11.2354C17.8142 11.5895 18.2622 11.7666 18.8038 11.7666ZM22.5538 16.7666C23.0955 16.7666 23.5434 16.5895 23.8976 16.2354C24.2518 15.8812 24.4288 15.4333 24.4288 14.8916C24.4288 14.3499 24.2518 13.902 23.8976 13.5479C23.5434 13.1937 23.0955 13.0166 22.5538 13.0166C22.0122 13.0166 21.5642 13.1937 21.2101 13.5479C20.8559 13.902 20.6788 14.3499 20.6788 14.8916C20.6788 15.4333 20.8559 15.8812 21.2101 16.2354C21.5642 16.5895 22.0122 16.7666 22.5538 16.7666ZM15.6788 25.5166C15.8663 25.5166 16.0174 25.4645 16.132 25.3604C16.2465 25.2562 16.3038 25.1208 16.3038 24.9541C16.3038 24.6624 16.1476 24.3187 15.8351 23.9229C15.5226 23.527 15.3663 22.9333 15.3663 22.1416C15.3663 21.2666 15.6684 20.5687 16.2726 20.0479C16.8768 19.527 17.6163 19.2666 18.4913 19.2666H20.6788C22.0538 19.2666 23.2309 18.8656 24.2101 18.0635C25.1893 17.2614 25.6788 16.0166 25.6788 14.3291C25.6788 11.8083 24.7153 9.70931 22.7882 8.03223C20.8611 6.35514 18.5747 5.5166 15.9288 5.5166C13.0955 5.5166 10.6788 6.48535 8.67883 8.42285C6.67883 10.3604 5.67883 12.7249 5.67883 15.5166C5.67883 18.2874 6.65279 20.6468 8.60071 22.5947C10.5486 24.5426 12.908 25.5166 15.6788 25.5166Z" fill="black"/>
</g>
</svg>
