<svg width="30" height="30" viewBox="0 0 30 30" fill="none" xmlns="http://www.w3.org/2000/svg">
<mask id="mask0_4023_192" style="mask-type:alpha" maskUnits="userSpaceOnUse" x="0" y="0" width="30" height="30">
<rect width="30" height="30" fill="#D9D9D9"/>
</mask>
<g mask="url(#mask0_4023_192)">
<path d="M7.4375 23.75C5.35417 23.6458 3.80208 23.2083 2.78125 22.4375C1.76042 21.6667 1.25 20.5521 1.25 19.0938C1.25 17.7396 1.80729 16.6406 2.92187 15.7969C4.03646 14.9531 5.58333 14.4479 7.5625 14.2813C8.375 14.2188 8.98438 14.0885 9.39063 13.8906C9.79688 13.6927 10 13.4167 10 13.0625C10 12.5208 9.69271 12.1146 9.07813 11.8437C8.46354 11.5729 7.44792 11.375 6.03125 11.25L6.25 8.75C8.39583 8.91667 9.97396 9.34896 10.9844 10.0469C11.9948 10.7448 12.5 11.75 12.5 13.0625C12.5 14.1667 12.099 15.0313 11.2969 15.6563C10.4948 16.2813 9.3125 16.6563 7.75 16.7813C6.41667 16.8854 5.41667 17.1302 4.75 17.5156C4.08333 17.901 3.75 18.4271 3.75 19.0938C3.75 19.8229 4.04167 20.349 4.625 20.6719C5.20833 20.9948 6.1875 21.1875 7.5625 21.25L7.4375 23.75ZM17.3438 22.8125L12.1875 17.6562L22.9688 6.875C23.3854 6.45833 23.8802 6.25 24.4531 6.25C25.026 6.25 25.5208 6.45833 25.9375 6.875L28.125 9.0625C28.5417 9.47917 28.75 9.97396 28.75 10.5469C28.75 11.1198 28.5417 11.6146 28.125 12.0312L17.3438 22.8125ZM11.2187 25C10.8646 25.0833 10.5521 24.9896 10.2812 24.7188C10.0104 24.4479 9.91667 24.1354 10 23.7813L10.9688 19.0625L15.9063 24L11.2187 25Z" fill="white"/>
</g>
</svg>
